<svg width="39" height="39" viewBox="0 0 39 39" fill="none" xmlns="http://www.w3.org/2000/svg">
<path d="M16.25 26C16.25 25.569 16.4212 25.1557 16.726 24.851C17.0307 24.5462 17.444 24.375 17.875 24.375H21.125C21.556 24.375 21.9693 24.5462 22.274 24.851C22.5788 25.1557 22.75 25.569 22.75 26V32.5C22.75 32.931 22.5788 33.3443 22.274 33.649C21.9693 33.9538 21.556 34.125 21.125 34.125H17.875C17.444 34.125 17.0307 33.9538 16.726 33.649C16.4212 33.3443 16.25 32.931 16.25 32.5V26Z" fill="white" stroke="white" stroke-width="1.33333" stroke-linecap="round" stroke-linejoin="round"/>
<path d="M30.875 9.75H32.5C33.362 9.75 34.1886 10.0924 34.7981 10.7019C35.4076 11.3114 35.75 12.138 35.75 13C35.75 15.1549 34.894 17.2215 33.3702 18.7452C31.8465 20.269 29.7799 21.125 27.625 21.125H19.5V24.375" stroke="white" stroke-width="1.33333" stroke-linecap="round" stroke-linejoin="round"/>
<path d="M8.125 8.125C8.125 7.26305 8.46741 6.4364 9.0769 5.8269C9.6864 5.21741 10.513 4.875 11.375 4.875H27.625C28.487 4.875 29.3136 5.21741 29.9231 5.8269C30.5326 6.4364 30.875 7.26305 30.875 8.125V11.375C30.875 12.237 30.5326 13.0636 29.9231 13.6731C29.3136 14.2826 28.487 14.625 27.625 14.625H11.375C10.513 14.625 9.6864 14.2826 9.0769 13.6731C8.46741 13.0636 8.125 12.237 8.125 11.375V8.125Z" fill="white" stroke="white" stroke-width="1.33333" stroke-linecap="round" stroke-linejoin="round"/>
</svg>
